<?xml version="1.0" encoding="utf-8"?>
<!-- Generator: Adobe Illustrator 15.0.0, SVG Export Plug-In . SVG Version: 6.00 Build 0)  -->
<!DOCTYPE svg PUBLIC "-//W3C//DTD SVG 1.0//EN" "http://www.w3.org/TR/2001/REC-SVG-20010904/DTD/svg10.dtd">
<svg version="1.0" id="Layer_1" xmlns="http://www.w3.org/2000/svg" xmlns:xlink="http://www.w3.org/1999/xlink" x="0px" y="0px"
	 width="380px" height="123px" viewBox="-128.5 0 380 123" enable-background="new -128.5 0 380 123" xml:space="preserve">
<g>
	<g>
		<g>
			<rect width="123" height="123"/>
		</g>
		<g>
			<polygon fill="#FFFFFF" points="24,17 24,100 24,106 30,106 30,31 55.752,105 82,30.259 82,106 88,106 88,17 81,17 56.5,88.668 
				31.516,17 			"/>
			<polygon fill="#FFFFFF" points="35,17 35,100 35,106 41,106 41,31 66.752,105 93,30.259 93,106 99,106 99,17 92,17 67.5,88.668 
				42.516,17 			"/>
		</g>
	</g>
	<rect y="46" width="123" height="25"/>
	<g>
		<g>
			<path fill="#FFFFFF" d="M30.106,51.875l3.146,11.881h-2.496l-0.549-2.513h-3.162l-0.549,2.513H24l3.145-11.881H30.106z
				 M29.791,59.28l-1.148-5.341h-0.033l-1.148,5.341H29.791z"/>
			<path fill="#FFFFFF" d="M38.676,51.875c0.999,0,1.775,0.252,2.33,0.757s0.832,1.273,0.832,2.304c0,0.799-0.161,1.451-0.482,1.956
				c-0.322,0.505-0.821,0.829-1.498,0.973v0.033c0.6,0.089,1.037,0.283,1.314,0.583c0.277,0.3,0.449,0.782,0.516,1.448
				c0.022,0.222,0.039,0.463,0.051,0.724c0.011,0.261,0.021,0.552,0.033,0.874c0.021,0.632,0.055,1.114,0.1,1.447
				c0.066,0.333,0.211,0.561,0.433,0.683v0.1h-2.596c-0.122-0.166-0.2-0.357-0.233-0.574s-0.056-0.441-0.066-0.674l-0.066-2.28
				c-0.022-0.466-0.139-0.832-0.35-1.098s-0.565-0.399-1.064-0.399h-1.281v5.025H34.25V51.875H38.676z M37.645,57.067
				c0.576,0,1.021-0.136,1.331-0.408s0.466-0.729,0.466-1.373c0-1.098-0.555-1.647-1.664-1.647h-1.131v3.428H37.645z"/>
			<path fill="#FFFFFF" d="M50.324,53.838h-2.596v9.917h-2.396v-9.917h-2.597v-1.963h7.588V53.838z"/>
			<path fill="#FFFFFF" d="M59.692,51.875c0.488,0,0.94,0.05,1.356,0.15c0.416,0.1,0.773,0.266,1.073,0.499s0.532,0.544,0.699,0.932
				c0.166,0.388,0.249,0.865,0.249,1.431c0,0.644-0.149,1.196-0.449,1.656c-0.299,0.46-0.748,0.774-1.348,0.94v0.034
				c0.666,0.089,1.192,0.372,1.581,0.849c0.388,0.477,0.582,1.115,0.582,1.914c0,0.466-0.061,0.91-0.183,1.331
				c-0.122,0.422-0.33,0.791-0.624,1.106c-0.294,0.316-0.677,0.569-1.148,0.757c-0.472,0.189-1.057,0.283-1.756,0.283h-4.043V51.875
				H59.692z M58.761,56.75c0.666,0,1.151-0.119,1.456-0.358c0.305-0.238,0.458-0.641,0.458-1.206c0-0.566-0.139-0.965-0.416-1.198
				s-0.716-0.35-1.314-0.35h-0.865v3.112H58.761z M59.011,61.992c0.576,0,1.042-0.127,1.397-0.383
				c0.354-0.255,0.532-0.727,0.532-1.415c0-0.344-0.047-0.629-0.141-0.857c-0.095-0.227-0.223-0.41-0.383-0.549
				c-0.161-0.139-0.353-0.236-0.574-0.292c-0.223-0.055-0.466-0.083-0.732-0.083h-1.031v3.578H59.011z"/>
			<path fill="#FFFFFF" d="M70.375,51.875l3.146,11.881h-2.496l-0.549-2.513h-3.162l-0.549,2.513h-2.496l3.145-11.881H70.375z
				 M70.06,59.28l-1.148-5.341h-0.033l-1.148,5.341H70.06z"/>
			<path fill="#FFFFFF" d="M76.449,60.395c0,0.277,0.021,0.53,0.066,0.757c0.044,0.228,0.127,0.419,0.249,0.574
				c0.122,0.156,0.286,0.278,0.491,0.366c0.205,0.089,0.463,0.133,0.773,0.133c0.366,0,0.696-0.119,0.99-0.357
				s0.441-0.607,0.441-1.106c0-0.266-0.036-0.497-0.108-0.69c-0.072-0.194-0.191-0.369-0.358-0.524
				c-0.166-0.155-0.385-0.296-0.657-0.424c-0.271-0.127-0.606-0.258-1.006-0.391c-0.533-0.177-0.993-0.372-1.382-0.582
				c-0.388-0.211-0.713-0.458-0.973-0.741c-0.261-0.283-0.452-0.61-0.574-0.982c-0.122-0.371-0.184-0.801-0.184-1.29
				c0-1.175,0.327-2.052,0.982-2.629c0.654-0.577,1.553-0.865,2.695-0.865c0.532,0,1.023,0.058,1.473,0.175
				c0.449,0.116,0.837,0.305,1.165,0.565c0.327,0.261,0.582,0.594,0.765,0.999c0.184,0.405,0.275,0.89,0.275,1.456v0.333h-2.297
				c0-0.566-0.1-1.001-0.3-1.307c-0.199-0.305-0.532-0.458-0.998-0.458c-0.267,0-0.488,0.039-0.665,0.117
				c-0.178,0.078-0.319,0.18-0.425,0.308c-0.105,0.128-0.178,0.275-0.216,0.441c-0.039,0.167-0.059,0.339-0.059,0.516
				c0,0.366,0.077,0.674,0.232,0.923s0.488,0.48,0.999,0.69l1.847,0.799c0.455,0.2,0.826,0.408,1.115,0.624
				c0.288,0.216,0.519,0.449,0.69,0.699c0.172,0.25,0.291,0.524,0.357,0.824c0.066,0.3,0.1,0.632,0.1,0.999
				c0,1.254-0.363,2.166-1.09,2.737s-1.738,0.857-3.036,0.857c-1.354,0-2.321-0.295-2.904-0.883
				c-0.582-0.588-0.873-1.431-0.873-2.529v-0.482h2.396V60.395z"/>
			<path fill="#FFFFFF" d="M89.96,53.838h-4.243v2.795h3.993v1.964h-3.993v3.195h4.409v1.963H83.32V51.875h6.64V53.838z"/>
			<path fill="#FFFFFF" d="M91.491,51.875h2.396v9.917h4.243v1.963h-6.64V51.875z"/>
		</g>
		<line fill="none" stroke="#FFFFFF" stroke-miterlimit="10" x1="24" y1="48.5" x2="98" y2="48.5"/>
		<line fill="none" stroke="#FFFFFF" stroke-miterlimit="10" x1="24" y1="68.5" x2="98" y2="68.5"/>
	</g>
</g>
<g>
	<path d="M250,1v121H130V1H250 M251,0H129v123h122V0L251,0z"/>
</g>
<g>
	<polygon points="152,17 152,100 152,106 158,106 158,31 183.752,105 210,30.259 210,106 216,106 216,17 209,17 184.5,88.668 
		159.516,17 	"/>
	<polygon points="163,17 163,100 163,106 169,106 169,31 194.752,105 221,30.259 221,106 227,106 227,17 220,17 195.5,88.668 
		170.516,17 	"/>
</g>
<g>
	<g>
		<rect x="-128" width="123" height="123"/>
	</g>
	<g>
		<polygon fill="#FFFFFF" points="-104,17 -104,100 -104,106 -98,106 -98,31 -72.248,105 -46,30.259 -46,106 -40,106 -40,17 -47,17 
			-71.5,88.668 -96.484,17 		"/>
		<polygon fill="#FFFFFF" points="-93,17 -93,100 -93,106 -87,106 -87,31 -61.248,105 -35,30.259 -35,106 -29,106 -29,17 -36,17 
			-60.5,88.668 -85.484,17 		"/>
	</g>
</g>
</svg>
