<?xml version="1.0" encoding="utf-8"?>
<!-- Generator: Adobe Illustrator 15.0.0, SVG Export Plug-In . SVG Version: 6.00 Build 0)  -->
<!DOCTYPE svg PUBLIC "-//W3C//DTD SVG 1.1//EN" "http://www.w3.org/Graphics/SVG/1.1/DTD/svg11.dtd">
<svg version="1.1" id="Layer_1" xmlns="http://www.w3.org/2000/svg" xmlns:xlink="http://www.w3.org/1999/xlink" x="0px" y="0px"
	 width="123px" height="123px" viewBox="0 0 123 123" enable-background="new 0 0 123 123" xml:space="preserve">
<g>
	<path fill="#FFFFFF" d="M122,1v121H1V1H122 M123,0H0v123h123V0L123,0z"/>
</g>
<g>
	<polygon fill="#FFFFFF" points="23,17 23,100 23,106 29,106 29,31 54.752,105 81,30.259 81,106 87,106 87,17 80,17 55.5,88.668 
		30.516,17 	"/>
	<polygon fill="#FFFFFF" points="34,17 34,100 34,106 40,106 40,31 65.752,105 92,30.259 92,106 98,106 98,17 91,17 66.5,88.668 
		41.516,17 	"/>
</g>
</svg>
