<?xml version="1.0" encoding="utf-8"?>
<!-- Generator: Adobe Illustrator 15.0.0, SVG Export Plug-In . SVG Version: 6.00 Build 0)  -->
<!DOCTYPE svg PUBLIC "-//W3C//DTD SVG 1.0//EN" "http://www.w3.org/TR/2001/REC-SVG-20010904/DTD/svg10.dtd">
<svg version="1.0" id="Layer_1" xmlns="http://www.w3.org/2000/svg" xmlns:xlink="http://www.w3.org/1999/xlink" x="0px" y="0px"
	 width="123px" height="123px" viewBox="-129 0 123 123" enable-background="new -129 0 123 123" xml:space="preserve">
<g>
	<path d="M-7,1v121h-121V1H-7 M-6,0h-123v123H-6V0L-6,0z"/>
</g>
<g>
	<polygon points="-106,17 -106,100 -106,106 -100,106 -100,31 -74.248,105 -48,30.259 -48,106 -42,106 -42,17 -49,17 -73.5,88.668 
		-98.484,17 	"/>
	<polygon points="-95,17 -95,100 -95,106 -89,106 -89,31 -63.248,105 -37,30.259 -37,106 -31,106 -31,17 -38,17 -62.5,88.668 
		-87.484,17 	"/>
</g>
</svg>
