<?xml version="1.0" encoding="utf-8"?>
<!-- Generator: Adobe Illustrator 15.0.0, SVG Export Plug-In . SVG Version: 6.00 Build 0)  -->
<!DOCTYPE svg PUBLIC "-//W3C//DTD SVG 1.0//EN" "http://www.w3.org/TR/2001/REC-SVG-20010904/DTD/svg10.dtd">
<svg version="1.0" id="Layer_1" xmlns="http://www.w3.org/2000/svg" xmlns:xlink="http://www.w3.org/1999/xlink" x="0px" y="0px"
	 width="878.777px" height="310.138px" viewBox="0 0 878.777 310.138" enable-background="new 0 0 878.777 310.138"
	 xml:space="preserve">
<g opacity="0.05">
	<polygon points="0,311 21,311 21,47.231 110.15,305.852 197,44.928 197,311 218,311 218,0 199.58,0 111.021,255.74 23.328,0 0,0 	
		"/>
	<polygon points="31,311 52,311 52,47.231 141.15,305.852 228,44.928 228,311 249,311 249,0 230.684,0 142.125,255.74 54.432,0 
		31,0 	"/>
</g>
<g opacity="0.05">
	<path d="M306.863,134.372h6.946l30.765,73.327h0.221l30.434-73.327h6.947v78.73h-4.852v-72.776h-0.221l-29.993,72.776h-4.852
		l-30.323-72.776h-0.221v72.776h-4.852V134.372z"/>
	<path d="M420.548,134.372h5.292l31.096,78.73h-5.182l-9.925-25.251h-37.712l-10.033,25.251H388.9L420.548,134.372z
		 M440.285,183.661l-16.871-44.548h-0.221l-17.531,44.548H440.285z"/>
	<path d="M463.66,134.372h6.065l49.73,72.225h0.22v-72.225h4.853v78.73h-5.733l-50.062-72.776h-0.22v72.776h-4.853V134.372z"/>
	<path d="M562.9,134.372h5.293l31.096,78.73h-5.184l-9.924-25.251h-37.711l-10.035,25.251h-5.182L562.9,134.372z M582.639,183.661
		l-16.871-44.548h-0.221l-17.533,44.548H582.639z"/>
	<path d="M299.254,231.407h4.963l20.51,73.548h0.221l20.84-73.548h6.064l21.172,73.548h0.221l20.179-73.548h5.183L376,310.138
		h-5.513l-21.612-74.541h-0.221l-21.281,74.541h-5.404L299.254,231.407z"/>
	<path d="M459.252,231.407h5.402l-31.646,45.761v32.97h-4.852v-32.97l-31.426-45.761h5.513l28.448,41.681L459.252,231.407z"/>
	<path d="M470.387,231.407h6.064l49.73,72.225h0.221v-72.225h4.853v78.73h-5.733l-50.062-72.776h-0.22v72.776h-4.853V231.407z"/>
	<path d="M538.643,231.407h4.961l20.51,73.548h0.221l20.841-73.548h6.065l21.171,73.548h0.22l20.18-73.548h5.183l-22.604,78.73
		h-5.514l-21.613-74.541h-0.22l-21.282,74.541h-5.402L538.643,231.407z"/>
	<path d="M716.723,270.772c0,5.733-0.846,11.119-2.535,16.154c-1.693,5.036-4.137,9.41-7.334,13.121
		c-3.197,3.713-7.111,6.636-11.742,8.767c-4.633,2.131-9.889,3.198-15.77,3.198s-11.156-1.067-15.822-3.198
		c-4.67-2.131-8.602-5.054-11.799-8.767c-3.198-3.711-5.643-8.085-7.333-13.121c-1.692-5.035-2.536-10.421-2.536-16.154
		c0-5.734,0.844-11.118,2.536-16.154c1.69-5.034,4.135-9.409,7.333-13.122c3.197-3.711,7.129-6.633,11.799-8.766
		c4.666-2.132,9.941-3.198,15.822-3.198s11.137,1.066,15.77,3.198c4.631,2.133,8.545,5.055,11.742,8.766
		c3.197,3.713,5.641,8.088,7.334,13.122C715.877,259.654,716.723,265.038,716.723,270.772z M646.703,270.772
		c0,5.072,0.734,9.852,2.205,14.335c1.47,4.484,3.602,8.398,6.396,11.743c2.792,3.346,6.211,6.01,10.254,7.994
		c4.043,1.985,8.637,2.978,13.783,2.978c5.145,0,9.721-0.992,13.729-2.978c4.006-1.984,7.406-4.648,10.199-7.994
		c2.793-3.345,4.926-7.259,6.396-11.743c1.469-4.483,2.205-9.263,2.205-14.335s-0.736-9.851-2.205-14.335
		c-1.471-4.483-3.604-8.397-6.396-11.743c-2.793-3.345-6.193-6.01-10.199-7.995c-4.008-1.984-8.584-2.977-13.729-2.977
		c-5.146,0-9.74,0.992-13.783,2.977c-4.043,1.985-7.462,4.65-10.254,7.995c-2.795,3.346-4.927,7.26-6.396,11.743
		C647.438,260.922,646.703,265.7,646.703,270.772z"/>
	<path d="M799.533,270.772c0,5.733-0.848,11.119-2.536,16.154c-1.692,5.036-4.136,9.41-7.333,13.121
		c-3.199,3.713-7.112,6.636-11.743,8.767c-4.632,2.131-9.89,3.198-15.769,3.198c-5.882,0-11.156-1.067-15.823-3.198
		c-4.669-2.131-8.601-5.054-11.799-8.767c-3.197-3.711-5.643-8.085-7.333-13.121c-1.691-5.035-2.536-10.421-2.536-16.154
		c0-5.734,0.845-11.118,2.536-16.154c1.69-5.034,4.136-9.409,7.333-13.122c3.198-3.711,7.13-6.633,11.799-8.766
		c4.667-2.132,9.941-3.198,15.823-3.198c5.879,0,11.137,1.066,15.769,3.198c4.631,2.133,8.544,5.055,11.743,8.766
		c3.197,3.713,5.641,8.088,7.333,13.122C798.686,259.654,799.533,265.038,799.533,270.772z M729.514,270.772
		c0,5.072,0.733,9.852,2.205,14.335c1.47,4.484,3.6,8.398,6.396,11.743c2.793,3.346,6.211,6.01,10.255,7.994
		c4.042,1.985,8.637,2.978,13.783,2.978c5.145,0,9.721-0.992,13.729-2.978c4.006-1.984,7.404-4.648,10.199-7.994
		c2.793-3.345,4.925-7.259,6.396-11.743c1.47-4.483,2.206-9.263,2.206-14.335s-0.736-9.851-2.206-14.335
		c-1.471-4.483-3.603-8.397-6.396-11.743c-2.795-3.345-6.193-6.01-10.199-7.995c-4.008-1.984-8.584-2.977-13.729-2.977
		c-5.146,0-9.741,0.992-13.783,2.977c-4.044,1.985-7.462,4.65-10.255,7.995c-2.796,3.346-4.926,7.26-6.396,11.743
		C730.247,260.922,729.514,265.7,729.514,270.772z"/>
	<path d="M811.002,231.407h25.801c7.058,0,12.919,1.103,17.588,3.308c4.668,2.205,8.397,5.146,11.192,8.821
		c2.794,3.677,4.759,7.867,5.899,12.57c1.139,4.706,1.709,9.558,1.709,14.556c0,5.587-0.717,10.789-2.15,15.603
		c-1.434,4.815-3.657,8.987-6.672,12.516s-6.818,6.304-11.412,8.325c-4.595,2.022-10.053,3.032-16.374,3.032h-25.581V231.407z
		 M837.023,305.947c3.675,0,7.369-0.568,11.082-1.709c3.711-1.139,7.074-3.05,10.09-5.733c3.013-2.683,5.457-6.285,7.332-10.807
		c1.875-4.521,2.812-10.199,2.812-17.036c0-5.365-0.534-9.96-1.6-13.783c-1.066-3.821-2.463-7.038-4.189-9.648
		c-1.729-2.608-3.713-4.668-5.955-6.175c-2.244-1.506-4.559-2.664-6.946-3.474c-2.39-0.809-4.78-1.341-7.168-1.599
		c-2.39-0.257-4.539-0.387-6.45-0.387h-20.18v70.351H837.023z"/>
</g>
</svg>
