<?xml version="1.0" encoding="utf-8"?>
<!-- Generator: Adobe Illustrator 15.0.0, SVG Export Plug-In . SVG Version: 6.00 Build 0)  -->
<!DOCTYPE svg PUBLIC "-//W3C//DTD SVG 1.1//EN" "http://www.w3.org/Graphics/SVG/1.1/DTD/svg11.dtd">
<svg version="1.1" id="Layer_1" xmlns="http://www.w3.org/2000/svg" xmlns:xlink="http://www.w3.org/1999/xlink" x="0px" y="0px"
	 width="62.57px" height="672.089px" viewBox="0 0 62.57 672.089" enable-background="new 0 0 62.57 672.089" xml:space="preserve">
<g id="Your_Icon_2_">
	<polygon fill="#F4F4F4" points="13.921,25.168 31.017,42.264 32.054,41.228 15.689,24.864 49.518,24.864 49.518,23.399 
		15.689,23.399 32.054,7.036 31.017,6 13.921,23.096 12.885,24.132 	"/>
</g>
<g id="Your_Icon_1_">
	<polygon fill="#F4F4F4" points="48.48,95.001 31.385,77.906 30.348,78.942 46.712,95.305 12.884,95.305 12.884,96.77 46.712,96.77 
		30.348,113.133 31.385,114.169 48.48,97.074 49.517,96.038 	"/>
</g>
<g>
	<polyline fill="none" stroke="#4E4E4E" stroke-miterlimit="10" points="46.205,142.678 52.932,149.021 46.587,155.365 	"/>
</g>
<g>
	<polyline fill="none" stroke="#4E4E4E" stroke-miterlimit="10" points="13.778,155.174 7.052,148.83 13.396,142.486 	"/>
</g>
<polygon fill="#FFFFFF" points="13.456,210.002 31.854,191.604 49.725,209.478 "/>
<g>
	<line fill="none" stroke="#DA0000" stroke-miterlimit="10" x1="13.5" y1="293" x2="53" y2="253.5"/>
	<line fill="none" stroke="#DA0000" stroke-miterlimit="10" x1="13.5" y1="253.5" x2="53" y2="293"/>
</g>
<g>
	<line fill="none" stroke="#DA0000" stroke-miterlimit="10" x1="20.451" y1="598.922" x2="40.118" y2="579.256"/>
	<line fill="none" stroke="#DA0000" stroke-miterlimit="10" x1="20.451" y1="579.256" x2="40.118" y2="598.922"/>
</g>
<g>
	<line fill="none" stroke="#C1272D" stroke-miterlimit="10" x1="30.285" y1="330.356" x2="30.285" y2="347.356"/>
	<line fill="none" stroke="#C1272D" stroke-miterlimit="10" x1="21.785" y1="338.856" x2="38.785" y2="338.856"/>
</g>
<g>
	<polyline fill="none" stroke="#C1272D" stroke-miterlimit="10" points="18.515,526.178 30.285,519.178 42.054,526.178 	"/>
</g>
<g>
	<path fill="#C1272D" d="M42.735,395.834c-4.173-1.932-9.63-0.115-11.562,4.047c-1.931-4.162-7.39-5.979-11.562-4.047
		c-4.443,2.061-6.568,7.326-3.058,13.539c2.492,4.42,6.909,7.748,14.618,13.719c7.709-5.971,12.126-9.303,14.62-13.719
		C49.303,403.161,47.178,397.895,42.735,395.834z"/>
</g>
<g>
	<polyline fill="#FFFFFF" stroke="#C1272D" stroke-miterlimit="10" points="24.285,467.356 24.285,485.52 39.415,476.729 
		24.128,467.19 	"/>
</g>
</svg>
