<?xml version="1.0" encoding="utf-8"?>
<!-- Generator: Adobe Illustrator 15.0.0, SVG Export Plug-In . SVG Version: 6.00 Build 0)  -->
<!DOCTYPE svg PUBLIC "-//W3C//DTD SVG 1.1//EN" "http://www.w3.org/Graphics/SVG/1.1/DTD/svg11.dtd">
<svg version="1.1" id="Layer_1" xmlns="http://www.w3.org/2000/svg" xmlns:xlink="http://www.w3.org/1999/xlink" x="0px" y="0px"
	 width="29px" height="547px" viewBox="0 0 29 547" enable-background="new 0 0 29 547" xml:space="preserve">
<g opacity="0.9">
	<rect width="29" height="29"/>
	<g>
		<path fill="#FFFFFF" d="M19.923,11.603c0.163,1.916-0.625,3.547-0.887,4.132c-0.263,0.583-1.554,3.164-5.201,4.192
			c-3.648,1.028-6.489-1.047-6.489-1.047c2.561,0.322,4.172-1.19,4.172-1.19c-2.178-0.202-2.6-1.996-2.6-1.996
			c0.927,0.142,1.169-0.101,1.169-0.101c-2.358-0.705-2.196-2.821-2.196-2.821c0.967,0.463,1.228,0.281,1.228,0.281
			c-2.115-1.712-0.826-3.808-0.826-3.808c2.761,3.225,5.905,3.023,5.905,3.023c-0.079-0.7-0.079-2.566,1.774-3.318
			c1.86-0.755,3.226,0.684,3.226,0.684c0.745-0.046,2.022-0.736,2.022-0.736c-0.147,0.793-1.466,1.645-1.466,1.645
			c0.665-0.047,1.652-0.464,1.652-0.464C21.268,10.467,19.923,11.603,19.923,11.603z"/>
	</g>
</g>
<g opacity="0.9">
	<rect y="49" width="29" height="29"/>
	<g>
		<path fill="#FFFFFF" d="M18.23,60.848h-2.558V59.17c0-0.629,0.416-0.777,0.71-0.777c0.295,0,2.029-0.03,2.029-0.03v-2.675h-2.676
			c-2.76,0-3.421,1.992-3.421,3.313v1.848H10.72v2.853l1.672,0.013c0,3.662,0,8.027,0,8.027h3.344c0,0,0-4.408,0-8.027l2.201-0.013
			L18.23,60.848z"/>
	</g>
</g>
<g opacity="0.9">
	<rect y="145" width="29" height="29"/>
	<g>
		<g>
			<g>
				<path fill="#FFFFFF" d="M10.073,167.193v-10.127H7.372v10.127h2.026H10.073z M8.681,155.354c1.189,0,1.932-0.789,1.932-1.775
					c-0.022-1.007-0.742-1.773-1.908-1.773c-1.17,0-1.932,0.766-1.932,1.773c0,0.986,0.739,1.775,1.886,1.775H8.681L8.681,155.354z"
					/>
			</g>
		</g>
		<g>
			<path fill="#FFFFFF" d="M12.774,167.193h2.701v-6.077c0-0.306,0.676-2.025,2.025-2.025c1.234,0,2.025,0.644,2.025,2.025v6.077
				h2.701v-6.077c0-3.153-1.131-4.051-3.377-4.051c-1.842,0-2.927,0.65-3.375,1.351l0,0v-1.351h-2.702c0,0.675,0,9.452,0,9.452
				L12.774,167.193L12.774,167.193z"/>
		</g>
	</g>
</g>
<g>
	<rect y="97" width="29" height="28"/>
	<path fill="#404040" d="M20.3,109H29V97H0v12h9.667c0,0,2.041-3.161,4.833-3.161C17.293,105.839,19.594,106,20.3,109z"/>
	<circle fill="none" stroke="#FFFFFF" stroke-miterlimit="10" cx="15.161" cy="110.995" r="5.644"/>
	<circle fill="#FFFFFF" cx="15.161" cy="110.995" r="4.126"/>
	<rect x="23" y="100" fill="#FFFFFF" width="4" height="4"/>
</g>
<g opacity="0.9">
	<rect y="194" fill="#979797" width="29" height="29"/>
	<g>
		<path fill="#FFFFFF" d="M19.923,205.603c0.163,1.915-0.625,3.548-0.887,4.132c-0.263,0.584-1.554,3.164-5.201,4.193
			c-3.648,1.027-6.489-1.048-6.489-1.048c2.561,0.321,4.172-1.19,4.172-1.19c-2.178-0.201-2.6-1.996-2.6-1.996
			c0.927,0.143,1.169-0.1,1.169-0.1c-2.358-0.705-2.196-2.822-2.196-2.822c0.967,0.464,1.228,0.281,1.228,0.281
			c-2.115-1.712-0.826-3.808-0.826-3.808c2.761,3.225,5.905,3.022,5.905,3.022c-0.079-0.699-0.079-2.566,1.774-3.318
			c1.86-0.755,3.226,0.685,3.226,0.685c0.745-0.046,2.022-0.736,2.022-0.736c-0.147,0.793-1.466,1.645-1.466,1.645
			c0.665-0.048,1.652-0.464,1.652-0.464C21.268,204.467,19.923,205.603,19.923,205.603z"/>
	</g>
</g>
<g opacity="0.9">
	<rect y="243" fill="#979797" width="29" height="29"/>
	<g>
		<path fill="#FFFFFF" d="M18.23,254.848h-2.558v-1.678c0-0.629,0.416-0.777,0.71-0.777c0.295,0,2.029-0.03,2.029-0.03v-2.675
			h-2.676c-2.76,0-3.421,1.992-3.421,3.312v1.848H10.72v2.854l1.672,0.012c0,3.662,0,8.027,0,8.027h3.344c0,0,0-4.408,0-8.027
			l2.201-0.012L18.23,254.848z"/>
	</g>
</g>
<g opacity="0.9">
	<rect y="340" fill="#979797" width="29" height="29"/>
	<g>
		<g>
			<g>
				<path fill="#FFFFFF" d="M10.073,362.193v-10.127H7.372v10.127h2.026H10.073z M8.681,350.354c1.189,0,1.932-0.787,1.932-1.773
					c-0.022-1.008-0.742-1.773-1.908-1.773c-1.17,0-1.932,0.767-1.932,1.773c0,0.986,0.739,1.773,1.886,1.773H8.681L8.681,350.354z"
					/>
			</g>
		</g>
		<g>
			<path fill="#FFFFFF" d="M12.774,362.193h2.701v-6.076c0-0.308,0.676-2.025,2.025-2.025c1.234,0,2.025,0.646,2.025,2.025v6.076
				h2.701v-6.076c0-3.154-1.131-4.051-3.377-4.051c-1.842,0-2.927,0.648-3.375,1.35l0,0v-1.35h-2.702c0,0.675,0,9.45,0,9.45
				L12.774,362.193L12.774,362.193z"/>
		</g>
	</g>
</g>
<g>
	<rect y="292" fill="#979797" width="29" height="28"/>
	<circle fill="none" stroke="#FFFFFF" stroke-miterlimit="10" cx="15.041" cy="305.883" r="5.599"/>
	<circle fill="#FFFFFF" cx="15.041" cy="305.883" r="4.093"/>
	<line fill="none" stroke="#FFFFFF" stroke-miterlimit="10" x1="11" y1="303.5" x2="0" y2="303.5"/>
	<line fill="none" stroke="#FFFFFF" stroke-miterlimit="10" x1="29" y1="303.5" x2="20" y2="303.5"/>
	<rect x="23" y="295" fill="#FFFFFF" width="4" height="4"/>
</g>
<g>
	<polyline fill="none" stroke="#E4E4E4" stroke-miterlimit="10" points="11.537,384.932 18.259,391.418 11.462,398.215 	"/>
</g>
<g>
	<g>
		<ellipse opacity="0.2" enable-background="new    " cx="15.177" cy="458.866" rx="7.224" ry="1.276"/>
		<path fill="#666666" d="M15.207,428.621c-4.662,0-8.441,3.778-8.441,8.441c0,4.661,8.441,16.296,8.441,16.296
			s8.441-11.635,8.441-16.296C23.648,432.399,19.869,428.621,15.207,428.621z M15.207,441.595c-2.596,0-4.699-2.104-4.699-4.7
			c0-2.596,2.104-4.696,4.699-4.696c2.598,0,4.7,2.102,4.7,4.696C19.907,439.49,17.805,441.595,15.207,441.595z"/>
		<path opacity="0.6" fill="#7F7F7F" enable-background="new    " d="M15.207,453.358c0,0,8.646-11.635,8.646-16.296
			c0-5.089-3.854-8.441-7.854-8.441v3.576c1,0,4.113,1.76,4.113,4.696c0,2.597-2.111,4.7-4.709,4.7"/>
	</g>
</g>
</svg>
